#N canvas 134 41 1034 553 10;
#X floatatom 17 47 5 0 0 0 - - -;
#X obj 13 250 s sampleName;
#N canvas 601 106 566 544 sampleSelector 0;
#X obj 170 179 + 1;
#X obj 170 211 % 2;
#X obj 170 112 bng 15 250 50 0 empty empty empty 17 7 0 10 -262144
-1 -1;
#X floatatom 169 242 5 0 0 0 - - -;
#X obj 170 147 i;
#X obj 166 282 hradio 15 1 0 2 empty empty empty 0 -8 0 10 -262144
-1 -1 0;
#X obj 166 306 select 0 1;
#X obj 203 281 outlet;
#X obj 165 9 inlet;
#X obj 32 383 s selectSample1;
#X obj 142 382 s selectSample2;
#X obj 299 388 s sampleName1;
#X obj 398 388 s sampleName2;
#X obj 299 359 symbol;
#X obj 166 40 prepend symbol;
#X obj 396 356 symbol;
#X obj 167 78 t b s;
#X connect 0 0 1 0;
#X connect 1 0 3 0;
#X connect 1 0 4 1;
#X connect 2 0 4 0;
#X connect 3 0 5 0;
#X connect 3 0 7 0;
#X connect 4 0 0 0;
#X connect 5 0 6 0;
#X connect 6 0 9 0;
#X connect 6 0 13 0;
#X connect 6 1 10 0;
#X connect 6 1 15 0;
#X connect 8 0 14 0;
#X connect 13 0 11 0;
#X connect 14 0 16 0;
#X connect 15 0 12 0;
#X connect 16 0 2 0;
#X connect 16 1 13 1;
#X connect 16 1 15 1;
#X restore 285 220 pd sampleSelector;
#X obj 283 256 hradio 15 1 0 2 empty empty empty 0 -8 0 10 -262144
-1 -1 0;
#X obj 285 187 r sampleName;
#N canvas 414 264 536 325 sample1 1;
#X obj 386 3 inlet;
#X text 382 -20 Sample Volume;
#X obj 29 50 readsf~;
#X obj 250 -24 bng 15 250 50 0 empty empty empty 17 7 0 10 -262144
-1 -1;
#X obj 30 171 dac~;
#X obj 30 135 *~ 1;
#X obj 29 -57 inlet;
#X obj 216 30 gate 0;
#X obj 216 0 tgl 15 0 empty empty empty 17 7 0 10 -262144 -1 -1 1 1
;
#X text 24 -87 Sample Name;
#N canvas 520 91 414 305 loadSample1 0;
#X obj 36 -148 bng 15 250 50 0 empty empty empty 17 7 0 10 -262144
-1 -1;
#X msg -87 -17 1;
#X obj -87 -45 delay 10;
#X obj -128 -63 bng 15 250 50 0 empty empty empty 17 7 0 10 -262144
-1 -1;
#X obj -189 -180 inlet;
#X obj -188 46 outlet;
#X obj 37 -178 inlet;
#X obj -97 44 print sample1;
#X obj -192 -100 sprintf open samples/%s.aiff;
#X connect 0 0 8 0;
#X connect 1 0 5 0;
#X connect 1 0 7 0;
#X connect 2 0 1 0;
#X connect 3 0 2 0;
#X connect 4 0 8 0;
#X connect 6 0 0 0;
#X connect 8 0 3 0;
#X connect 8 0 5 0;
#X connect 8 0 7 0;
#X restore 29 -11 pd loadSample1;
#X connect 0 0 5 1;
#X connect 0 0 8 0;
#X connect 2 0 5 0;
#X connect 2 1 3 0;
#X connect 3 0 7 1;
#X connect 5 0 4 0;
#X connect 6 0 10 0;
#X connect 7 0 10 1;
#X connect 8 0 7 0;
#X connect 10 0 2 0;
#X restore -68 87 pd sample1;
#X obj -83 3 r sampleName1;
#X obj 17 3 r volumeSample1;
#X floatatom 230 49 5 0 0 0 - - -;
#X obj 130 5 r sampleName2;
#X obj 230 5 r volumeSample2;
#X obj 349 9 r selectSample1;
#X obj 458 22 r selectSample2;
#N canvas 379 193 536 325 sample2 1;
#X obj 386 3 inlet;
#X text 382 -20 Sample Volume;
#X obj 29 50 readsf~;
#X obj 250 -24 bng 15 250 50 0 empty empty empty 17 7 0 10 -262144
-1 -1;
#X obj 30 171 dac~;
#X obj 30 135 *~ 1;
#X text 24 -87 Sample Int;
#X obj 29 -57 inlet;
#X obj 216 30 gate 0;
#X obj 216 0 tgl 15 0 empty empty empty 17 7 0 10 -262144 -1 -1 -0
0.04;
#N canvas 296 71 414 305 loadSample2 1;
#X obj 36 -148 bng 15 250 50 0 empty empty empty 17 7 0 10 -262144
-1 -1;
#X msg -87 -17 1;
#X obj -87 -45 delay 10;
#X obj -128 -63 bng 15 250 50 0 empty empty empty 17 7 0 10 -262144
-1 -1;
#X obj -189 -180 inlet;
#X obj -188 46 outlet;
#X obj 37 -178 inlet;
#X obj -100 48 print sample2;
#X obj -192 -100 sprintf open samples/%s.aiff;
#X connect 0 0 8 0;
#X connect 1 0 5 0;
#X connect 1 0 7 0;
#X connect 2 0 1 0;
#X connect 3 0 2 0;
#X connect 4 0 8 0;
#X connect 6 0 0 0;
#X connect 8 0 3 0;
#X connect 8 0 5 0;
#X connect 8 0 7 0;
#X restore 29 -11 pd loadSample2;
#X connect 0 0 5 1;
#X connect 0 0 9 0;
#X connect 2 0 5 0;
#X connect 2 1 3 0;
#X connect 3 0 8 1;
#X connect 5 0 4 1;
#X connect 7 0 10 0;
#X connect 8 0 10 1;
#X connect 9 0 8 0;
#X connect 10 0 2 0;
#X restore 145 89 pd sample2;
#N canvas 0 22 421 441 sampleCrossFader 0;
#X obj 30 -18 inlet;
#X obj 210 -12 inlet;
#N canvas 638 269 543 405 crossfade 0;
#X obj 39 17 inlet;
#X obj 45 53 hsl 128 15 0 1 0 0 empty empty empty -2 -8 0 10 -262144
-1 -1 12700 1;
#X floatatom 43 85 5 0 0 0 - - -;
#X msg 130 100 1;
#X obj 48 132 -;
#X floatatom 48 168 5 0 0 0 - - -;
#X obj 49 200 * -1;
#X floatatom 49 231 5 0 0 0 - - -;
#X obj 48 262 outlet;
#X connect 0 0 1 0;
#X connect 1 0 2 0;
#X connect 2 0 3 0;
#X connect 2 0 4 0;
#X connect 3 0 4 1;
#X connect 4 0 5 0;
#X connect 5 0 6 0;
#X connect 6 0 7 0;
#X connect 7 0 8 0;
#X restore 57 197 pd crossfade;
#X obj 56 139 hsl 128 15 0 1 0 0 empty empty empty -2 -8 0 10 -262144
-1 -1 12700 1;
#X obj 53 102 line;
#X text 80 49 Go to 0 in 500ms;
#X text 258 50 Go to 1 in 500ms;
#X floatatom 56 167 5 0 0 0 - - -;
#X obj 63 272 hsl 128 15 0 1 0 0 empty empty empty -2 -8 0 10 -262144
-1 -1 0 1;
#X floatatom 60 223 5 0 0 0 - - -;
#X obj 57 309 tgl 15 0 empty empty empty 17 7 0 10 -262144 -1 -1 0
0.04;
#X obj 22 180 tgl 15 0 empty empty empty 17 7 0 10 -262144 -1 -1 1
1;
#X obj 149 194 s volumeSample1;
#X obj 153 250 s volumeSample2;
#X msg 32 49 1 500;
#X msg 210 50 0 500;
#X obj 31 16 bng 15 250 50 0 empty empty empty 17 7 0 10 -262144 -1
-1;
#X obj 209 19 bng 15 250 50 0 empty empty empty 17 7 0 10 -262144 -1
-1;
#X text 206 -36 Select Sample 2;
#X text 27 -40 Select Sample 1;
#X connect 0 0 16 0;
#X connect 1 0 17 0;
#X connect 2 0 9 0;
#X connect 3 0 7 0;
#X connect 3 0 11 0;
#X connect 4 0 3 0;
#X connect 7 0 2 0;
#X connect 7 0 12 0;
#X connect 8 0 10 0;
#X connect 9 0 8 0;
#X connect 9 0 13 0;
#X connect 14 0 4 0;
#X connect 15 0 4 0;
#X connect 16 0 14 0;
#X connect 17 0 15 0;
#X restore 347 53 pd sampleCrossFader;
#X symbolatom 435 249 27 0 0 0 - - -;
#X obj 435 181 r sampleName;
#X text 433 271 Current Sample;
#X obj 435 213 prepend symbol;
#X msg -80 195 sonar1;
#X msg 15 197 Region1;
#X msg 108 198 Region2;
#X connect 0 0 5 1;
#X connect 2 0 3 0;
#X connect 4 0 2 0;
#X connect 6 0 5 0;
#X connect 7 0 0 0;
#X connect 8 0 13 1;
#X connect 9 0 13 0;
#X connect 10 0 8 0;
#X connect 11 0 14 0;
#X connect 12 0 14 1;
#X connect 16 0 18 0;
#X connect 18 0 15 0;
#X connect 19 0 1 0;
#X connect 20 0 1 0;
#X connect 21 0 1 0;
